# xmcd CD database file
#
# Track frame offsets:
#	150
#	23447
#	45237
#	69552
#	94512
#	118135
#	142377
#	166757
#	187640
#	213960
#	235062
#
# Disc length: 3435 seconds
#
# Revision: 11
# Processed by: cddbd v1.5.2PL0 Copyright (c) Steve Scherf et al.
# Submitted via: CDex 1.70beta3
#
DISCID=850d690b
DTITLE=久保田利伸 - Neptune
DYEAR=1992
DGENRE=J-POP
TTITLE0=真夜中の太陽
TTITLE1=To the Limit
TTITLE2=Adeus Meu Amor
TTITLE3=トランペット吹きながら
TTITLE4=夏の子午線
TTITLE5=Sweet Dreams 〜そっとおやすみ〜
TTITLE6=Let's Get A Groove 〜Yo! Hips〜
TTITLE7=Our Masterpiece
TTITLE8=Pump Up Your Gold
TTITLE9=GET SIX
TTITLE10=誓い
EXTD=YEAR: 1992
EXTT0=
EXTT1=
EXTT2=
EXTT3=
EXTT4=
EXTT5=
EXTT6=
EXTT7=
EXTT8=
EXTT9=
EXTT10=
PLAYORDER=
